<svg id="Layer_1" data-name="Layer 1" xmlns="http://www.w3.org/2000/svg" viewBox="0 0 512 512"><title>christmas-tree-1</title><circle cx="256" cy="256" r="256" fill="#005d80"/><path d="M269.52,135.42l-13.08-7,59.75,109q-.44,3.92-2.62,5.23a7.36,7.36,0,0,1-4.58,1.09,27.32,27.32,0,0,1-4.8-.87,15.33,15.33,0,0,0-3.71-.66l54.08,61.49q-1.31,9.16-12.86,9.81t-25.95-3.27l60.62,72q-1.75,8.73-8.94,12.43a44.94,44.94,0,0,1-16.57,4.58A83.23,83.23,0,0,1,331,398.6a181.39,181.39,0,0,1-19-3.71,82.86,82.86,0,0,1-13.3-4.36q-4.8-2.18-3.49-2.62H293.5v33.14h-75V387.92h-1.74c.87.29-.37,1.16-3.71,2.62a94.49,94.49,0,0,1-13.3,4.36A169.94,169.94,0,0,1,181,398.6a83.25,83.25,0,0,1-19.84.66,44.92,44.92,0,0,1-16.57-4.58q-7.2-3.7-8.94-12.43l60.62-72q-14.39,3.92-25.95,3.27t-12.86-9.81l54.08-61.49a15.26,15.26,0,0,0-3.71.66,27.58,27.58,0,0,1-4.8.87,7.33,7.33,0,0,1-4.58-1.09q-2.19-1.31-2.62-5.23l59.74-109-13.52,7,2.62-15.7-11.34-11.78,15.7-2.18,6.54-14.82,7,14.82,15.7,2.18-10.9,11.78Z" fill="#faf2e6"/></svg>