<svg id="Layer_1" data-name="Layer 1" xmlns="http://www.w3.org/2000/svg" viewBox="0 0 512 512"><title>flag-flat</title><path d="M.37,256C.37,114.82,114.82.35,256,.35S511.64,114.83,511.63,256,397.18,511.65,256,511.65.35,397.18.37,256Z" fill="#2b77c1"/><path d="M150.22,403.23l17.42.45L168.54,242c28.14-4.47,49.14-4,77.28.45,4.47,46,44.68,16.07,92,40.64,12.51,6.26,9.38,10.28,17.42,13,20.55-36.18-14.74-45.12-8-100.51,3.13-30.38-45.11-34.4-66.11-38.87-3.12-24.57,14.74-42.89-37.52-45.12-17-.45-62.1,2.68-71.92,0-8.94-2.68-5.36-4-21-2.68Z" fill="#fff" fill-rule="evenodd"/></svg>